<svg width="900" height="980" viewBox="0 0 900 980" fill="none" xmlns="http://www.w3.org/2000/svg">
  <defs>
    <linearGradient id="bg" x1="80" y1="70" x2="820" y2="910" gradientUnits="userSpaceOnUse">
      <stop offset="0" stop-color="#0D2746"/>
      <stop offset="1" stop-color="#133860"/>
    </linearGradient>
    <linearGradient id="gold" x1="230" y1="608" x2="672" y2="920" gradientUnits="userSpaceOnUse">
      <stop offset="0" stop-color="#FFC445"/>
      <stop offset="1" stop-color="#E89A00"/>
    </linearGradient>
    <filter id="blur" x="0" y="0" width="900" height="980" filterUnits="userSpaceOnUse" color-interpolation-filters="sRGB">
      <feGaussianBlur stdDeviation="30"/>
    </filter>
  </defs>

  <rect x="80" y="70" width="740" height="840" rx="36" fill="url(#bg)"/>
  <rect x="110" y="100" width="680" height="780" rx="28" fill="#163B64" fill-opacity="0.65" stroke="#3B6796"/>

  <g filter="url(#blur)" opacity="0.45">
    <circle cx="690" cy="190" r="72" fill="#FFD37A"/>
    <circle cx="240" cy="760" r="72" fill="#60A5FA"/>
  </g>

  <path d="M230 830C230 715.677 322.677 623 437 623H463C577.323 623 670 715.677 670 830V872H230V830Z" fill="url(#gold)"/>
  <circle cx="450" cy="430" r="168" fill="#E8F0FD"/>
  <circle cx="450" cy="430" r="132" fill="#BBD0ED"/>

  <path d="M379 414C389 394 410 381 434 381H466C490 381 511 394 521 414" stroke="#2D4D73" stroke-width="14" stroke-linecap="round"/>
  <path d="M383 506C402 530 425 542 450 542C475 542 498 530 517 506" stroke="#2D4D73" stroke-width="14" stroke-linecap="round"/>

  <rect x="180" y="150" width="246" height="126" rx="16" fill="#113153" stroke="#3D6693"/>
  <rect x="206" y="176" width="148" height="14" rx="7" fill="#7FA3D1"/>
  <rect x="206" y="202" width="192" height="12" rx="6" fill="#5C83B7"/>
  <rect x="206" y="224" width="158" height="12" rx="6" fill="#5C83B7"/>

  <rect x="470" y="700" width="280" height="132" rx="18" fill="#113153" stroke="#3D6693"/>
  <rect x="496" y="728" width="168" height="14" rx="7" fill="#7FA3D1"/>
  <rect x="496" y="754" width="220" height="12" rx="6" fill="#5C83B7"/>
  <rect x="496" y="776" width="186" height="12" rx="6" fill="#5C83B7"/>

  <text x="450" y="900" text-anchor="middle" fill="#FFFFFF" font-size="40" font-family="Arial, Helvetica, sans-serif" font-weight="700">MAYANK GAUR</text>
  <text x="450" y="936" text-anchor="middle" fill="#BFD5F2" font-size="22" font-family="Arial, Helvetica, sans-serif">Founder & Career Mobility Consultant</text>
</svg>
